HIERARCHY
ROOT Hips
{
	OFFSET 0.000000 0.000000 0.000000
	CHANNELS 6 Xposition Yposition Zposition Zrotation Yrotation Xrotation 
	JOINT LHipJoint
	{
		OFFSET 0.000000 0.000000 0.000000
		CHANNELS 3 Zrotation Yrotation Xrotation
		JOINT LeftUpLeg
		{
			OFFSET 1.363060 -1.794630 0.839290
			CHANNELS 3 Zrotation Yrotation Xrotation
			JOINT LeftLeg
			{
				OFFSET 2.448110 -6.726130 0.000000
				CHANNELS 3 Zrotation Yrotation Xrotation
				JOINT LeftFoot
				{
					OFFSET 2.562200 -7.039590 0.000000
					CHANNELS 3 Zrotation Yrotation Xrotation
					JOINT LeftToeBase
					{
						OFFSET 0.157640 -0.433110 2.322550
						CHANNELS 3 Zrotation Yrotation Xrotation
						End Site
						{
							OFFSET 0.000000 0.000000 0.000000
						}
					}
				}
			}
		}
	}
	JOINT RHipJoint
	{
		OFFSET 0.000000 0.000000 0.000000
		CHANNELS 3 Zrotation Yrotation Xrotation
		JOINT RightUpLeg
		{
			OFFSET -1.305520 -1.794630 0.839290
			CHANNELS 3 Zrotation Yrotation Xrotation
			JOINT RightLeg
			{
				OFFSET -2.542530 -6.985550 0.000000
				CHANNELS 3 Zrotation Yrotation Xrotation
				JOINT RightFoot
				{
					OFFSET -2.568260 -7.056230 0.000000
					CHANNELS 3 Zrotation Yrotation Xrotation
					JOINT RightToeBase
					{
						OFFSET -0.164730 -0.452590 2.363150
						CHANNELS 3 Zrotation Yrotation Xrotation
						End Site
						{
							OFFSET 0.000000 0.000000 0.000000
						}
					}
				}
			}
		}
	}
}
MOTION
Frames: 34
Frame Time: 0.008333
4.136388 17.252671 1.183688 99.320239 86.748239 97.809797 -10.003631 1.672455 -0.486647 -11.231890 16.801143 -23.553410 -1.461075 1.076547 31.387428 3.050349 19.320439 -8.945252 -0.388500 0.000000 -15.411600 10.011466 -2.647514 0.368178 6.514242 -8.698184 8.962914 1.792776 0.754213 0.638311 -1.420509 -6.027113 -7.990938 -0.202300 0.000000 -23.610400
4.264660 17.243152 1.194610 95.556421 86.661430 94.199038 -9.949211 1.591331 -0.438392 -11.961011 16.841606 -24.197410 -1.562238 0.938967 29.498554 3.027313 19.122698 -8.486458 -0.200000 0.000000 -15.642700 10.003301 -2.686314 0.336192 6.346920 -8.793935 9.349819 1.791163 0.757470 0.469700 -1.390425 -5.861274 -7.976326 -0.197400 -0.000000 -24.603300
4.393467 17.232883 1.203417 91.823569 86.586734 90.608586 -9.905940 1.514743 -0.389835 -12.651823 16.904047 -24.795124 -1.663889 0.798633 27.548298 2.992417 18.885407 -7.943386 0.015001 0.000000 -15.998700 9.983872 -2.726446 0.301871 6.203093 -8.881072 9.726656 1.793377 0.755072 0.357776 -1.359707 -5.692800 -7.955474 -0.193400 0.000000 -25.680000
4.522916 17.221893 1.210235 88.013664 86.522768 86.930051 -9.876129 1.442664 -0.341922 -13.302807 16.999550 -25.352570 -1.767822 0.656223 25.551526 2.941444 18.583647 -7.329684 0.247801 -0.000000 -16.495200 9.951833 -2.768653 0.265756 6.083312 -8.963088 10.094615 1.800180 0.747391 0.299085 -1.327022 -5.515229 -7.925077 -0.190400 0.000001 -26.825801
4.653173 17.210224 1.215259 84.054273 86.464819 83.090842 -9.860573 1.376054 -0.295007 -13.915784 17.135398 -25.875130 -1.876005 0.512777 23.523008 2.870129 18.192129 -6.654847 0.489900 0.000000 -17.176000 9.907950 -2.813151 0.227524 5.982324 -9.049709 10.453536 1.811771 0.734682 0.290010 -1.290291 -5.319414 -7.877704 -0.188800 -0.000001 -28.069299
4.784375 17.197979 1.218632 79.876406 86.408732 79.025420 -9.859669 1.314765 -0.248416 -14.490899 17.311109 -26.373231 -1.990263 0.369437 21.483968 2.775679 17.688420 -5.940238 0.727400 -0.000000 -17.966500 9.851568 -2.859311 0.189802 5.902877 -9.133230 10.804694 1.827809 0.718555 0.322479 -1.250984 -5.111588 -7.819241 -0.188100 -0.000000 -29.309200
4.916712 17.185262 1.220654 75.484822 86.346553 74.739389 -9.871479 1.260017 -0.201409 -15.032445 17.523497 -26.851796 -2.112155 0.227518 19.452101 2.655876 17.054846 -5.197096 0.949700 -0.000001 -18.881500 9.785784 -2.906293 0.152330 5.836594 -9.221780 11.147177 1.847357 0.699362 0.392607 -1.207990 -4.887791 -7.743210 -0.188700 0.000000 -30.579500
5.050291 17.172179 1.221556 70.895697 86.272448 70.251851 -9.894036 1.211632 -0.153312 -15.541531 17.766586 -27.320480 -2.242761 0.088577 17.454671 2.510177 16.277405 -4.449002 1.142001 -0.000000 -19.854400 9.712088 -2.952953 0.116863 5.782512 -9.310018 11.481869 1.869247 0.678211 0.494200 -1.162820 -4.655823 -7.652064 -0.190400 -0.000000 -31.843100
5.185196 17.158911 1.221774 66.298333 86.177201 65.752877 -9.920003 1.170837 -0.098325 -16.023461 17.998978 -27.759912 -2.379876 -0.048670 15.483690 2.343399 15.382058 -3.688669 1.304201 0.000000 -20.970400 9.640269 -2.997699 0.079630 5.718040 -9.419115 11.802259 1.891153 0.653856 0.630323 -1.112963 -4.405086 -7.534544 -0.193800 0.000000 -33.199299
5.321524 17.145586 1.221286 61.716731 86.062274 61.269637 -9.948707 1.134452 -0.037017 -16.469570 18.214938 -28.183404 -2.522814 -0.182418 13.582856 2.157913 14.363683 -2.960001 1.419200 -0.000001 -22.064801 9.568410 -3.039926 0.044126 5.653834 -9.527458 12.111648 1.912282 0.627525 0.795613 -1.062613 -4.155495 -7.401792 -0.198100 -0.000000 -34.564100
5.459247 17.132362 1.220312 57.308528 85.926570 56.961512 -9.975332 1.100386 0.035824 -16.871898 18.368996 -28.570589 -2.666566 -0.314152 11.753603 1.962187 13.266160 -2.269854 1.489400 0.000000 -23.168500 9.501840 -3.078555 0.008075 5.580590 -9.637758 12.406373 1.931060 0.598152 0.995013 -1.012097 -3.907883 -7.255989 -0.202900 -0.000000 -35.939501
5.598288 17.119332 1.218920 53.159676 85.773140 52.914555 -9.998016 1.065389 0.122609 -17.216403 18.430724 -28.908966 -2.806290 -0.444103 10.015181 1.763928 12.125638 -1.644151 1.514100 0.000000 -24.220500 9.441957 -3.113408 -0.030070 5.496670 -9.746626 12.685350 1.946713 0.564515 1.233380 -0.962153 -3.666059 -7.096450 -0.208400 0.000000 -37.362900
5.738562 17.106552 1.217055 49.313046 85.606246 49.171393 -10.016377 1.026353 0.225712 -17.484634 18.369263 -29.182158 -2.936001 -0.572301 8.383208 1.571613 10.987855 -1.103825 1.498600 0.000000 -25.194900 9.388739 -3.144159 -0.072182 5.402515 -9.847872 12.948588 1.958903 0.525250 1.518255 -0.913484 -3.432588 -6.925553 -0.214199 -0.000000 -38.837300
5.879921 17.094089 1.214657 45.767561 85.429693 45.729955 -10.031119 0.980817 0.347044 -17.655979 18.156391 -29.371750 -3.049174 -0.698378 6.869178 1.393943 9.905541 -0.664614 1.452800 0.000000 -26.082500 9.341220 -3.170101 -0.120358 5.300581 -9.933157 13.196829 1.967634 0.479000 1.858542 -0.866613 -3.208472 -6.747364 -0.220000 -0.000001 -40.334400
6.022236 17.081915 1.211611 42.475138 85.246342 42.539794 -10.044017 0.927890 0.485888 -17.713490 17.782150 -29.468823 -3.140731 -0.820119 5.493636 1.237116 8.918298 -0.342050 1.386000 0.000000 -26.865500 9.297251 -3.190721 -0.176330 5.195364 -9.994678 13.432674 1.973216 0.424401 2.262833 -0.821395 -2.992662 -6.560623 -0.225800 -0.000000 -41.851800
6.165376 17.069985 1.207770 39.367127 85.057471 39.527925 -10.056808 0.868734 0.638572 -17.649057 17.257453 -29.475000 -3.207772 -0.933529 4.285016 1.104269 8.048003 -0.147320 1.305999 -0.000000 -27.530501 9.254922 -3.205841 -0.241180 5.090824 -10.027485 13.659629 1.976025 0.360141 2.738726 -0.776876 -2.780785 -6.359342 -0.231800 -0.000001 -43.410199
6.309301 17.058212 1.203009 36.380739 84.863106 36.627471 -10.070530 0.805878 0.801086 -17.462082 16.598561 -29.395820 -3.248570 -1.034309 3.266145 0.997205 7.311249 -0.078058 1.221100 -0.000000 -28.088400 9.213257 -3.215435 -0.315235 4.990599 -10.027646 13.880780 1.976288 0.285220 3.291902 -0.732016 -2.567919 -6.137414 -0.238100 -0.000000 -44.996600
6.454016 17.046540 1.197219 33.462011 84.662921 33.780210 -10.085557 0.743333 0.967607 -17.163356 15.836537 -29.245795 -3.263877 -1.117447 2.462206 0.914878 6.706567 -0.122990 1.136600 0.000000 -28.550900 9.172229 -3.220334 -0.397859 4.896401 -9.995835 14.099182 1.974102 0.198880 3.924987 -0.685234 -2.346964 -5.884430 -0.244700 0.000000 -46.620400
6.599661 17.034922 1.190280 30.558216 84.455346 30.930596 -10.101866 0.685608 1.131415 -16.770648 15.011308 -29.045237 -3.256253 -1.178111 1.894676 0.854332 6.220586 -0.260625 1.055700 -0.000000 -28.934600 9.132057 -3.221686 -0.486380 4.812404 -9.928755 14.318041 1.969294 0.101208 4.635222 -0.635915 -2.115827 -5.591910 -0.251600 0.000000 -48.240100
6.746450 17.023268 1.182306 27.765405 84.245210 28.172981 -10.117661 0.635598 1.295506 -16.296392 14.105926 -28.778207 -3.224174 -1.216957 1.534494 0.818477 5.892376 -0.439911 0.991500 -0.000000 -29.278800 9.098812 -3.222359 -0.584157 4.718491 -9.858191 14.531920 1.961189 -0.009479 5.422766 -0.579734 -1.851516 -5.238313 -0.257800 0.000001 -49.972500
6.894717 17.011580 1.173118 24.980885 84.028639 25.401634 -10.133899 0.598368 1.446106 -15.776856 13.209464 -28.494309 -3.176503 -1.227654 1.422190 0.796439 5.649805 -0.639735 0.935700 0.000000 -29.574500 9.070306 -3.224399 -0.682914 4.627784 -9.768244 14.748433 1.949400 -0.130928 6.272006 -0.518547 -1.564999 -4.817868 -0.262900 0.000000 -51.726100
7.044825 16.999889 1.162942 22.343999 83.815226 22.756982 -10.149623 0.575100 1.588802 -15.227348 12.296575 -28.176367 -3.112289 -1.213400 1.513529 0.790556 5.529842 -0.801200 0.899900 0.000000 -29.847101 9.052318 -3.231571 -0.785254 4.515377 -9.696341 14.959133 1.933037 -0.263773 7.177679 -0.448930 -1.234251 -4.313326 -0.264100 0.000000 -53.585400
7.197204 16.988324 1.151761 19.831075 83.602300 20.215638 -10.166169 0.567437 1.717154 -14.673512 11.414249 -27.843877 -3.036542 -1.173890 1.798421 0.794798 5.500601 -0.887393 0.883400 -0.000000 -30.092700 9.044157 -3.245746 -0.885034 4.383717 -9.631924 15.168546 1.911012 -0.405703 8.120394 -0.373325 -0.870391 -3.719252 -0.260000 -0.000000 -55.511601
7.352208 16.977009 1.139832 17.539566 83.401255 17.874920 -10.184450 0.576155 1.831343 -14.140993 10.577318 -27.510273 -2.952624 -1.110511 2.265759 0.805746 5.546982 -0.868001 0.887500 -0.000001 -30.301400 9.047800 -3.270407 -0.981630 4.212839 -9.606357 15.367880 1.882627 -0.555729 9.093538 -0.290158 -0.457210 -3.025877 -0.246300 0.000000 -57.564200
7.510196 16.966264 1.127247 15.486064 83.211296 15.754573 -10.206068 0.600210 1.930659 -13.643813 9.801607 -27.178864 -2.862249 -1.026795 2.880372 0.821643 5.663182 -0.717553 0.915000 0.000000 -30.459500 9.062235 -3.305984 -1.070479 4.000493 -9.607717 15.557205 1.846566 -0.711415 10.081211 -0.202814 -0.006811 -2.233744 -0.220000 -0.000000 -59.713600
7.671339 16.956388 1.114284 13.730596 83.038042 13.916447 -10.232053 0.638424 2.015943 -13.197762 9.097320 -26.857987 -2.767439 -0.926168 3.620388 0.840958 5.838476 -0.429500 0.966200 -0.000000 -30.543200 9.087433 -3.353264 -1.149874 3.734329 -9.645310 15.728943 1.801846 -0.871110 11.078784 -0.112442 0.484913 -1.342522 -0.176500 -0.000000 -61.981600
7.835707 16.947815 1.101180 12.305691 82.883300 12.396368 -10.262857 0.688539 2.088735 -12.811031 8.467249 -26.549117 -2.669125 -0.813313 4.453994 0.863837 6.070129 -0.009065 1.041900 0.000001 -30.530701 9.122421 -3.411357 -1.217104 3.411179 -9.709549 15.877410 1.747404 -1.032926 12.081606 -0.022157 1.010579 -0.357109 -0.111900 0.000000 -64.347300
8.003148 16.940819 1.088118 11.221682 82.751683 11.205133 -10.298317 0.749294 2.146619 -12.497989 7.940966 -26.279100 -2.571619 -0.689931 5.394474 0.886226 6.315672 0.506229 1.132700 -0.000000 -30.374200 9.166939 -3.480136 -1.270554 3.023596 -9.810947 15.986828 1.682487 -1.195809 13.102114 0.067317 1.580227 0.721042 -0.020100 -0.000000 -66.835700
8.173369 16.935747 1.075339 10.500340 82.644023 10.367395 -10.337257 0.817615 2.191207 -12.260771 7.515058 -26.047869 -2.475980 -0.560897 6.420097 0.908851 6.569775 1.080175 1.234200 -0.000000 -30.047500 9.221537 -3.558144 -1.309987 2.566532 -9.947286 16.042470 1.606059 -1.359303 14.155011 0.154082 2.198852 1.888642 0.105500 0.000000 -69.428299
8.345816 16.932952 1.062948 10.133777 82.557830 9.878965 -10.377829 0.889680 2.225618 -12.092168 7.170168 -25.841269 -2.381847 -0.432059 7.491468 0.934269 6.842910 1.677986 1.344700 -0.000000 -29.558500 9.285610 -3.642706 -1.334747 2.049608 -10.096866 16.037445 1.517149 -1.522752 15.248583 0.233834 2.853095 3.142187 0.268000 -0.000000 -72.065799
8.519849 16.932570 1.051107 10.108856 82.492996 9.727990 -10.417946 0.962834 2.249154 -11.992101 6.908722 -25.662699 -2.291921 -0.306428 8.605287 0.961006 7.114046 2.245938 1.454000 0.000000 -28.900100 9.360280 -3.732537 -1.346157 1.472904 -10.264040 15.953335 1.414806 -1.686541 16.409290 0.304866 3.551492 4.486278 0.475400 0.000001 -74.724000
8.694697 16.934620 1.039822 10.397991 82.446913 9.888098 -10.455337 1.034252 2.261897 -11.954961 6.721920 -25.503678 -2.207890 -0.187354 9.744590 0.988628 7.374413 2.738011 1.554300 -0.000000 -28.092400 9.446435 -3.825600 -1.346175 0.842968 -10.446450 15.775957 1.298036 -1.850845 17.660500 0.364027 4.294015 5.928766 0.734701 -0.000000 -77.349201
8.869488 16.939067 1.029042 10.937731 82.415023 10.297512 -10.488053 1.101725 2.263673 -11.970116 6.600045 -25.352068 -2.131081 -0.077439 10.889212 1.016531 7.616704 3.115573 1.638200 -0.000000 -27.177700 9.543599 -3.918985 -1.336320 0.177879 -10.632762 15.498426 1.166136 -2.014843 19.016476 0.406416 5.064612 7.478611 1.050100 -0.000000 -79.868600
9.043359 16.945600 1.018854 11.750543 82.395169 10.978020 -10.513458 1.163551 2.254022 -12.040336 6.531268 -25.194864 -2.063921 0.021200 12.026432 1.043580 7.833822 3.345166 1.698800 0.000000 -26.173600 9.656846 -4.011319 -1.322478 -0.540539 -10.853954 15.092421 1.017565 -2.179186 20.520385 0.429947 5.887128 9.156900 1.437500 0.000000 -82.221200
